#!OML:ASF X:\für Bonn\!DataBase\2005_08_11_Bastian_Final\c3d\Bastian.ASF
:FULLY-SPECIFIED
:DEGREES
586
root -0.292463 1.11852 26.1285 -995.944 -1.69504 -901.054
lowerback 6.60199 -0.762924 1.2789
upperback 10.3958 -1.9592 -0.154639
thorax 7.15505 -1.36275 -0.931214
lowerneck -11.0254 -3.76245 -0.571144
upperneck 22.993 -4.13266 -1.30607
head 8.99415 -1.70596 -0.732421
rclavicle 1.27222e-014 1.98785e-015
rhumerus -52.369 54.9215 -100.495
rradius 27.9258
rwrist -2.55672
rhand -15.3897 1.26743
rfingers 7.12502
rthumb 10.7888 -28.4355
lclavicle 1.27222e-014 1.98785e-015
lhumerus -224.165 -131.961 278.439
lradius 25.6601
lwrist 25.6969
lhand -12.272 -5.19216
lfingers 7.12502
lthumb 13.7948 24.3305
rfemur -4.86199 4.01711 22.7068
rtibia 31.7082
rfoot -7.1452 -22.7112
rtoes -9.81955
lfemur 1.35538 2.24335 -17.5153
ltibia 19.9475
lfoot -6.185 12.6712
ltoes 11.3073
587
root -0.289337 1.11896 26.1275 -995.92 -1.69735 -901.072
lowerback 6.53748 -0.779734 1.2212
upperback 10.3225 -1.96897 -0.15618
thorax 7.11181 -1.36489 -0.899791
lowerneck -11.3025 -3.70139 -0.469434
upperneck 22.8318 -4.11339 -1.23228
head 8.98944 -1.69767 -0.728279
rclavicle -2.3059e-014 1.27222e-014
rhumerus -52.7747 55.1733 -100.973
rradius 27.9413
rwrist -2.85033
rhand -15.3253 1.15154
rfingers 7.12502
rthumb 10.851 -28.5481
lclavicle -2.3059e-014 1.27222e-014
lhumerus -224.284 -131.799 278.5
lradius 25.5809
lwrist 25.7423
lhand -12.0906 -5.1068
lfingers 7.12502
lthumb 13.9697 24.4039
rfemur -4.8781 3.94917 22.6854
rtibia 31.6995
rfoot -7.16267 -22.7616
rtoes -10.0018
lfemur 1.32702 2.2902 -17.4921
ltibia 19.9504
lfoot -6.10618 12.6349
ltoes 11.189
588
root -0.286683 1.11952 26.1254 -995.92 -1.69604 -901.083
lowerback 6.50851 -0.803945 1.17898
upperback 10.242 -1.98751 -0.166347
thorax 7.03964 -1.37026 -0.88461
lowerneck -11.5166 -3.62716 -0.342823
upperneck 22.6289 -4.0775 -1.17228
head 8.95772 -1.68124 -0.729276
rclavicle -1.03368e-014 -7.95139e-015
rhumerus -53.2211 55.4101 -101.517
rradius 27.9387
rwrist -3.09719
rhand -15.2879 1.0422
rfingers 7.12502
rthumb 10.8871 -28.6556
lclavicle -1.03368e-014 -7.95139e-015
lhumerus -224.514 -131.583 278.636
lradius 25.5404
lwrist 25.9104
lhand -11.943 -5.03579
lfingers 7.12502
lthumb 14.1119 24.465
rfemur -4.86264 3.95513 22.6825
rtibia 31.6886
rfoot -7.22204 -22.8724
rtoes -9.9675
lfemur 1.3189 2.35222 -17.4676
ltibia 19.9548
lfoot -6.04552 12.5896
ltoes 10.9317
589
root -0.284216 1.11963 26.1244 -995.898 -1.69869 -901.093
lowerback 6.45411 -0.821031 1.12829
upperback 10.1695 -1.99836 -0.162442
thorax 6.9917 -1.373 -0.851145
lowerneck -11.7851 -3.57678 -0.294368
upperneck 22.4766 -4.06876 -1.05995
head 8.95682 -1.67672 -0.703985
rclavicle 9.54166e-015 3.77691e-015
rhumerus -53.553 55.5826 -101.916
rradius 27.9093
rwrist -3.28517
rhand -15.2503 0.935263
rfingers 7.12502
rthumb 10.9233 -28.7606
lclavicle 9.54166e-015 3.77691e-015
lhumerus -224.788 -131.284 278.852
lradius 25.5262
lwrist 26.181
lhand -11.8564 -4.95938
lfingers 7.12502
lthumb 14.1954 24.5356
rfemur -4.87555 3.93606 22.6674
rtibia 31.6816
rfoot -7.28465 -22.9492
rtoes -10.1033
lfemur 1.29611 2.37117 -17.453
ltibia 19.9559
lfoot -6.03423 12.5787
ltoes 10.9641
590
root -0.282116 1.11993 26.1221 -995.908 -1.69576 -901.102
lowerback 6.41331 -0.852323 1.08194
upperback 10.1204 -2.03248 -0.161705
thorax 6.96132 -1.38904 -0.82383
lowerneck -12.0933 -3.50606 -0.175653
upperneck 22.3392 -4.02788 -1.03296
head 8.96477 -1.66072 -0.716659
rclavicle 2.38542e-015 1.15295e-014
rhumerus -53.9463 55.8691 -102.404
rradius 27.9302
rwrist -3.57178
rhand -15.2186 0.821979
rfingers 7.12502
rthumb 10.9539 -28.8723
lclavicle 2.38542e-015 1.15295e-014
lhumerus -224.906 -131.134 278.893
lradius 25.4637
lwrist 26.3544
lhand -11.7367 -4.8486
lfingers 7.12502
lthumb 14.3107 24.6382
rfemur -4.84833 3.91575 22.6608
rtibia 31.6689
rfoot -7.32625 -23.0352
rtoes -10.0992
lfemur 1.30372 2.31571 -17.4453
ltibia 19.9647
lfoot -6.05171 12.6337
ltoes 10.6512
591
root -0.279507 1.12062 26.1211 -995.886 -1.69762 -901.092
lowerback 6.3429 -0.878183 1.03388
upperback 10.064 -2.05689 -0.16734
thorax 6.93986 -1.39871 -0.802953
lowerneck -12.3683 -3.44074 -0.0500497
upperneck 22.159 -3.99973 -0.995427
head 8.95187 -1.64989 -0.727133
rclavicle 2.78299e-014 -1.74931e-014
rhumerus -54.3317 56.1035 -102.884
rradius 27.9329
rwrist -3.8581
rhand -15.2024 0.716012
rfingers 7.12502
rthumb 10.9695 -28.9774
lclavicle 2.78299e-014 -1.74931e-014
lhumerus -225.045 -130.948 278.954
lradius 25.4026
lwrist 26.5907
lhand -11.6563 -4.75305
lfingers 7.12502
lthumb 14.3882 24.7283
rfemur -4.85857 3.82837 22.6352
rtibia 31.6578
rfoot -7.36936 -23.0567
rtoes -10.1562
lfemur 1.26951 2.38647 -17.4236
ltibia 19.9705
lfoot -5.98955 12.5929
ltoes 10.3112
592
root -0.278238 1.12113 26.1188 -995.897 -1.69613 -901.104
lowerback 6.31133 -0.903197 1.0043
upperback 10.0133 -2.08144 -0.178336
thorax 6.90195 -1.40828 -0.796953
lowerneck -12.6586 -3.37438 0.0959534
upperneck 22.0193 -3.9683 -0.976713
head 8.95487 -1.63579 -0.747419
rclavicle -2.22639e-014 1.55052e-014
rhumerus -54.7541 56.3748 -103.404
rradius 27.9524
rwrist -4.13899
rhand -15.1955 0.597844
rfingers 7.12502
rthumb 10.9762 -29.0952
lclavicle -2.22639e-014 1.55052e-014
lhumerus -225.227 -130.777 279.021
lradius 25.352
lwrist 26.8662
lhand -11.6403 -4.63867
lfingers 7.12502
lthumb 14.4036 24.8416
rfemur -4.83487 3.75934 22.6188
rtibia 31.6447
rfoot -7.36796 -23.1055
rtoes -10.3134
lfemur 1.28107 2.37148 -17.4137
ltibia 19.9808
lfoot -6.01402 12.6205
ltoes 10.3866
